<svg width="22" height="22" viewBox="0 0 22 22" xmlns="http://www.w3.org/2000/svg">
    <path d="M10.9912 19.7422C15.9746 19.7422 20.0879 15.6289 20.0879 10.6543C20.0879 5.67969 15.9658 1.56641 10.9824 1.56641C6.00781 1.56641 1.90332 5.67969 1.90332 10.6543C1.90332 15.6289 6.0166 19.7422 10.9912 19.7422ZM10.9912 13.6953C8.5127 13.6953 6.58789 14.583 5.65625 15.6025C4.46094 14.3105 3.73145 12.5703 3.73145 10.6543C3.73145 6.62012 6.95703 3.38574 10.9824 3.38574C15.0166 3.38574 18.2598 6.62012 18.2686 10.6543C18.2686 12.5703 17.5391 14.3105 16.335 15.6113C15.4033 14.583 13.4785 13.6953 10.9912 13.6953ZM10.9912 12.2539C12.6963 12.2715 14.0234 10.8125 14.0234 8.93164C14.0234 7.15625 12.6875 5.6709 10.9912 5.6709C9.30371 5.6709 7.95898 7.15625 7.96777 8.93164C7.97656 10.8125 9.29492 12.2451 10.9912 12.2539Z" fill="currentColor"/>
</svg>