<svg width="22" height="22" viewBox="0 0 22 22" xmlns="http://www.w3.org/2000/svg">
    <path d="M11.0879 20.1758C16.0713 20.1758 20.1846 16.0625 20.1846 11.0879C20.1846 6.11328 16.0625 2 11.0791 2C6.10449 2 2 6.11328 2 11.0879C2 16.0625 6.11328 20.1758 11.0879 20.1758ZM11.0879 18.3652C7.05371 18.3652 3.82812 15.1221 3.82812 11.0879C3.82812 7.05371 7.05371 3.81934 11.0791 3.81934C15.1133 3.81934 18.3564 7.05371 18.3652 11.0879C18.374 15.1221 15.1221 18.3652 11.0879 18.3652ZM9.01367 7.29102C7.57227 7.29102 6.5 8.38965 6.5 9.94531C6.5 12.3447 9.10156 14.4277 10.6309 15.3857C10.7803 15.4736 10.9824 15.5967 11.1055 15.5967C11.2285 15.5967 11.4131 15.4736 11.5537 15.3857C13.0654 14.4102 15.6846 12.3447 15.6846 9.94531C15.6846 8.38965 14.6123 7.29102 13.1621 7.29102C12.2305 7.29102 11.501 7.82715 11.0879 8.57422C10.6748 7.82715 9.96289 7.29102 9.01367 7.29102Z" fill="currentColor"/>
</svg>