<svg width="52" height="54" viewBox="0 0 52 54" xmlns="http://www.w3.org/2000/svg">
    <path 
        d="M 41.83984375,16.7578125 L 41.83984375,9.302734375 C 41.83984375,8.099609375 40.89453125,7.3046875 39.712890625,7.5625 L 28.390625,9.990234375 C 27.015625,10.291015625 26.328125,10.978515625 26.328125,12.1171875 L 26.478515625,34.9765625 C 26.478515625,36.05078125 25.94140625,36.759765625 24.99609375,36.953125 L 21.623046875,37.662109375 C 17.43359375,38.54296875 15.478515625,40.6484375 15.478515625,43.806640625 C 15.478515625,46.986328125 17.90625,49.19921875 21.365234375,49.19921875 C 24.458984375,49.19921875 29.03515625,46.96484375 29.03515625,40.86328125 L 29.03515625,22.193359375 C 29.03515625,21.033203125 29.271484375,20.796875 30.32421875,20.5390625 L 40.59375,18.283203125 C 41.3671875,18.1328125 41.83984375,17.53125 41.83984375,16.7578125 Z"
        fill="currentColor"
    />
</svg>