<svg version="1.1" xmlns="http://www.w3.org/2000/svg" xmlns:xlink="http://www.w3.org/1999/xlink" viewBox="0 0 15.7716 15.7715">
 <g>
  <rect height="15.7715" opacity="0" width="15.7716" x="0" y="0"/>
  <path d="M7.88085 15.7617C12.2363 15.7617 15.7715 12.2363 15.7715 7.88086C15.7715 3.5254 12.2363 0 7.88085 0C3.53515 0 2.22045e-16 3.5254 2.22045e-16 7.88086C2.22045e-16 12.2363 3.53515 15.7617 7.88085 15.7617ZM7.88085 14.2773C4.34571 14.2773 1.49413 11.416 1.49413 7.88086C1.49413 4.3457 4.34571 1.48438 7.88085 1.48438C11.416 1.48438 14.2774 4.3457 14.2774 7.88086C14.2774 11.416 11.416 14.2773 7.88085 14.2773Z" fill="white" fill-opacity="0.85"/>
  <path d="M6.46485 10.8691L10.8106 8.31054C11.1524 8.125 11.1426 7.64648 10.8106 7.46094L6.46485 4.90234C6.12305 4.69726 5.65429 4.85352 5.65429 5.24414L5.65429 10.5273C5.65429 10.918 6.08399 11.1035 6.46485 10.8691Z" />
 </g>
</svg>