<svg width="22" height="22" viewBox="0 0 22 22" xmlns="http://www.w3.org/2000/svg">
    <path d="M10.9912 19.7422C15.9746 19.7422 20.0879 15.6289 20.0879 10.6543C20.0879 5.67969 15.9658 1.56641 10.9824 1.56641C6.00781 1.56641 1.90332 5.67969 1.90332 10.6543C1.90332 15.6289 6.0166 19.7422 10.9912 19.7422ZM10.9912 17.9316C6.95703 17.9316 3.73145 14.6885 3.73145 10.6543C3.73145 6.62012 6.95703 3.38574 10.9824 3.38574C15.0166 3.38574 18.2598 6.62012 18.2686 10.6543C18.2773 14.6885 15.0254 17.9316 10.9912 17.9316ZM10.0771 13.3525C10.7539 13.3525 11.3955 13.168 11.9404 12.834L14.0498 14.9346C14.2344 15.1367 14.4541 15.2246 14.7178 15.2246C15.1924 15.2246 15.5352 14.873 15.5352 14.3809C15.5352 14.1611 15.4297 13.9502 15.2715 13.7832L13.1533 11.665C13.5225 11.0938 13.7334 10.417 13.7334 9.69629C13.7334 7.68359 12.0898 6.04004 10.0771 6.04004C8.07324 6.04004 6.4209 7.69238 6.4209 9.69629C6.4209 11.709 8.07324 13.3525 10.0771 13.3525ZM10.0771 12.043C8.79395 12.043 7.72168 10.9883 7.72168 9.69629C7.72168 8.41309 8.79395 7.34961 10.0771 7.34961C11.3691 7.34961 12.4238 8.4043 12.4238 9.69629C12.4238 10.9883 11.3691 12.043 10.0771 12.043Z" />
</svg>